<svg width="47" height="45" viewBox="0 0 47 45" fill="none" xmlns="http://www.w3.org/2000/svg">
<g clip-path="url(#clip0_1_88)">
<path d="M20.7771 24.469H16.0503V19.0193H20.7771V14.4778H26.4493V19.0193H31.1761V24.469H26.4493V29.0105H20.7771V24.469ZM23.6132 4.4865L8.48743 9.93628V20.9993C8.48743 30.1731 14.9348 38.7293 23.6132 40.8184C32.2916 38.7293 38.739 30.1731 38.739 20.9993V9.93628L23.6132 4.4865ZM34.9575 20.9993C34.9575 28.2657 30.1362 34.9871 23.6132 37.0399C17.0902 34.9871 12.2689 28.2839 12.2689 20.9993V12.4613L23.6132 8.37401L34.9575 12.4613V20.9993Z" fill="#01A768"/>
</g>
<defs>
<clipPath id="clip0_1_88">
<rect width="45.3774" height="43.5983" fill="white" transform="translate(0.92453 0.853302)"/>
</clipPath>
</defs>
</svg>
