<svg width="11" height="11" viewBox="0 0 11 11" fill="none" xmlns="http://www.w3.org/2000/svg">
<path d="M0.256806 2.13606L3.66333 5.40903L0.256806 8.682C-0.0856022 9.01098 -0.0856022 9.54242 0.256806 9.8714C0.599215 10.2004 1.15234 10.2004 1.49474 9.8714L5.52463 5.99952C5.86704 5.67053 5.86704 5.1391 5.52463 4.81011L1.49474 0.938228C1.15234 0.609243 0.599214 0.609243 0.256806 0.938228C-0.0768228 1.26721 -0.0856025 1.80708 0.256806 2.13606Z" fill="#1D242E"/>
<path d="M5.16248 2.13606L8.569 5.40903L5.16248 8.682C4.82007 9.01098 4.82007 9.54242 5.16248 9.8714C5.50489 10.2004 6.05801 10.2004 6.40041 9.8714L10.4303 5.99952C10.7727 5.67053 10.7727 5.1391 10.4303 4.81011L6.40041 0.938228C6.05801 0.609243 5.50488 0.609243 5.16248 0.938228C4.82885 1.26721 4.82007 1.80708 5.16248 2.13606Z" fill="#1D242E"/>
</svg>
