<svg width="26" height="25" viewBox="0 0 26 25" fill="none" xmlns="http://www.w3.org/2000/svg">
<path d="M12.7857 0C5.91071 0 0.285706 5.625 0.285706 12.5C0.285706 19.375 5.91071 25 12.7857 25C19.6607 25 25.2857 19.375 25.2857 12.5C25.2857 5.625 19.6607 0 12.7857 0ZM12.7857 3.125C17.9732 3.125 22.1607 7.3125 22.1607 12.5C22.1607 17.6875 17.9732 21.875 12.7857 21.875C7.59821 21.875 3.41071 17.6875 3.41071 12.5C3.41071 7.3125 7.59821 3.125 12.7857 3.125ZM11.2232 6.25V13.1875L11.7232 13.5938L13.2857 15.1562L14.3482 16.3438L16.5982 14.0938L15.4107 13.0312L14.3482 11.9688V6.3125H11.2232V6.25Z" fill="white"/>
</svg>
