<svg width="30" height="30" viewBox="0 0 30 30" fill="none" xmlns="http://www.w3.org/2000/svg">
<path d="M27 0H3C1.5 0 0 1.35 0 3V7.515C0 8.595 0.645 9.525 1.5 10.05V27C1.5 28.65 3.15 30 4.5 30H25.5C26.85 30 28.5 28.65 28.5 27V10.05C29.355 9.525 30 8.595 30 7.515V3C30 1.35 28.5 0 27 0ZM25.5 27H4.5V10.5H25.5V27ZM27 7.5H3V3H27V7.5Z" fill="white"/>
<path d="M19.7143 17.1429H10.7143V20.1429H19.7143V17.1429Z" fill="white"/>
<path d="M13.7143 14.1429L13.7143 23.1429L16.7143 23.1429L16.7143 14.1429L13.7143 14.1429Z" fill="white"/>
</svg>
