<svg width="39" height="38" viewBox="0 0 39 38" fill="none" xmlns="http://www.w3.org/2000/svg">
<path d="M34.739 7.58572H27.1761V3.85083C27.1761 1.79664 25.4745 0.115936 23.3947 0.115936H15.8318C13.752 0.115936 12.0503 1.79664 12.0503 3.85083V7.58572H4.48744C2.40764 7.58572 0.705994 9.26642 0.705994 11.3206V33.7299C0.705994 35.7841 2.40764 37.4648 4.48744 37.4648H34.739C36.8188 37.4648 38.5205 35.7841 38.5205 33.7299V11.3206C38.5205 9.26642 36.8188 7.58572 34.739 7.58572ZM15.8318 3.85083H23.3947V7.58572H15.8318V3.85083ZM34.739 33.7299H4.48744V11.3206H34.739V33.7299Z" fill="#03A9F5"/>
<path d="M21.5039 15.0555H17.7225V20.6578H12.0503V24.3927H17.7225V29.9951H21.5039V24.3927H27.1761V20.6578H21.5039V15.0555Z" fill="#03A9F5"/>
</svg>
