<svg width="38" height="37" viewBox="0 0 38 37" fill="none" xmlns="http://www.w3.org/2000/svg">
<g clip-path="url(#clip0_23_2)">
<path d="M30.0833 21.5833V9.25C30.0833 7.55417 28.6583 6.16667 26.9166 6.16667H4.74998C3.00831 6.16667 1.58331 7.55417 1.58331 9.25V21.5833C1.58331 23.2792 3.00831 24.6667 4.74998 24.6667H26.9166C28.6583 24.6667 30.0833 23.2792 30.0833 21.5833ZM26.9166 21.5833H4.74998V9.25H26.9166V21.5833ZM15.8333 10.7917C13.205 10.7917 11.0833 12.8575 11.0833 15.4167C11.0833 17.9758 13.205 20.0417 15.8333 20.0417C18.4616 20.0417 20.5833 17.9758 20.5833 15.4167C20.5833 12.8575 18.4616 10.7917 15.8333 10.7917ZM36.4166 10.7917V27.75C36.4166 29.4458 34.9916 30.8333 33.25 30.8333H6.33331C6.33331 29.2917 6.33331 29.4458 6.33331 27.75H33.25V10.7917C34.9916 10.7917 34.8333 10.7917 36.4166 10.7917Z" fill="white"/>
</g>
<defs>
<clipPath id="clip0_23_2">
<rect width="38" height="37" fill="white"/>
</clipPath>
</defs>
</svg>
