<svg width="43" height="31" viewBox="0 0 43 31" fill="none" xmlns="http://www.w3.org/2000/svg">
<path d="M34.8483 19.5451V4.599C34.8483 2.54392 33.1466 0.862488 31.0668 0.862488H4.59669C2.5169 0.862488 0.815247 2.54392 0.815247 4.599V19.5451C0.815247 21.6001 2.5169 23.2816 4.59669 23.2816H31.0668C33.1466 23.2816 34.8483 21.6001 34.8483 19.5451ZM31.0668 19.5451H4.59669V4.599H31.0668V19.5451ZM17.8318 6.46726C14.6932 6.46726 12.1596 8.97072 12.1596 12.072C12.1596 15.1733 14.6932 17.6768 17.8318 17.6768C20.9704 17.6768 23.5039 15.1733 23.5039 12.072C23.5039 8.97072 20.9704 6.46726 17.8318 6.46726ZM42.4112 6.46726V27.0181C42.4112 29.0732 40.7095 30.7546 38.6297 30.7546H6.48742C6.48742 28.8863 6.48742 29.0732 6.48742 27.0181H38.6297V6.46726C40.7095 6.46726 40.5204 6.46726 42.4112 6.46726Z" fill="#FED600"/>
</svg>
